<svg xmlns="http://www.w3.org/2000/svg" xmlns:xlink="http://www.w3.org/1999/xlink" width="96.434" height="96.435" viewBox="0 0 96.434 96.435"><defs><filter id="a" x="0" y="0" width="96.434" height="96.435" filterUnits="userSpaceOnUse"><feOffset dy="3" input="SourceAlpha"/><feGaussianBlur stdDeviation="3" result="b"/><feFlood flood-opacity="0.161"/><feComposite operator="in" in2="b"/><feComposite in="SourceGraphic"/></filter></defs><g transform="translate(-797.616 -11461.162)"><g transform="matrix(1, 0, 0, 1, 797.62, 11461.16)" filter="url(#a)"><g transform="translate(9 6)" fill="#fcedf9" opacity="0.859"><path d="M 39.21707534790039 76.9345703125 C 34.12464141845703 76.9345703125 29.18533134460449 75.93755340576172 24.53635406494141 73.97119903564453 C 20.04520797729492 72.07160949707031 16.01143074035645 69.35185241699219 12.54707527160645 65.88749694824219 C 9.082719802856445 62.42315292358398 6.362975120544434 58.38937377929688 4.463375568389893 53.89823150634766 C 2.49701976776123 49.24925231933594 1.499997615814209 44.30994033813477 1.499997615814209 39.21750640869141 C 1.499997615814209 34.12461853027344 2.49701976776123 29.18531799316406 4.463375568389893 24.53632926940918 C 6.362975120544434 20.04519653320312 9.082719802856445 16.01141929626465 12.54707527160645 12.54706287384033 C 16.01143074035645 9.082718849182129 20.04520797729492 6.36296272277832 24.53635406494141 4.463374137878418 C 29.18533134460449 2.497018575668335 34.12464141845703 1.499996304512024 39.21707534790039 1.499996304512024 C 44.30950927734375 1.499996304512024 49.24882125854492 2.497018575668335 53.89780807495117 4.463374137878418 C 58.38895416259766 6.36296272277832 62.4227180480957 9.082718849182129 65.88707733154297 12.54706287384033 C 69.35143280029297 16.01141929626465 72.07118988037109 20.04519653320312 73.97077178955078 24.53632926940918 C 75.9371337890625 29.18531799316406 76.93415069580078 34.12461853027344 76.93415069580078 39.2170524597168 C 76.93415069580078 44.30994033813477 75.9371337890625 49.24925231933594 73.97077178955078 53.89823150634766 C 72.07118988037109 58.38937377929688 69.35143280029297 62.42315292358398 65.88707733154297 65.88749694824219 C 62.4227180480957 69.35185241699219 58.38895416259766 72.07160949707031 53.89780807495117 73.97119903564453 C 49.24882125854492 75.93755340576172 44.30950927734375 76.9345703125 39.21707534790039 76.9345703125 Z" stroke="none"/><path d="M 39.21707534790039 3 C 34.32647705078125 3 29.58376312255859 3.957160949707031 25.12067413330078 5.844886779785156 C 20.8083381652832 7.668846130371094 16.9348258972168 10.28064727783203 13.60773468017578 13.60773468017578 C 10.28064727783203 16.93481063842773 7.668853759765625 20.80832290649414 5.844886779785156 25.12065887451172 C 3.957160949707031 29.58374786376953 3 34.32646179199219 3 39.21751022338867 C 3 44.10810852050781 3.957160949707031 48.85082244873047 5.844886779785156 53.31391143798828 C 7.668853759765625 57.62624740600586 10.28064727783203 61.49975967407227 13.60773468017578 64.82683563232422 C 16.9348258972168 68.15392303466797 20.8083381652832 70.76572418212891 25.12067413330078 72.58968353271484 C 29.58376312255859 74.47740936279297 34.32647705078125 75.4345703125 39.21707534790039 75.4345703125 C 44.10767364501953 75.4345703125 48.85038757324219 74.47740936279297 53.3134765625 72.58968353271484 C 57.62582397460938 70.76572418212891 61.49933624267578 68.15392303466797 64.826416015625 64.82683563232422 C 68.15350341796875 61.49975967407227 70.76529693603516 57.62624740600586 72.58926391601562 53.31391143798828 C 74.47698974609375 48.85082244873047 75.43415069580078 44.10810852050781 75.43415069580078 39.21706008911133 C 75.43415069580078 34.32646179199219 74.47698974609375 29.58374786376953 72.58926391601562 25.12065887451172 C 70.76529693603516 20.80832290649414 68.15350341796875 16.93481063842773 64.826416015625 13.60773468017578 C 61.49933624267578 10.28064727783203 57.62582397460938 7.668846130371094 53.3134765625 5.844886779785156 C 48.85038757324219 3.957160949707031 44.10767364501953 3 39.21707534790039 3 M 39.21707534790039 0 C 60.87607574462891 0 78.43415069580078 17.55807113647461 78.43415069580078 39.21706008911133 L 78.43415069580078 39.21751022338867 C 78.43415069580078 60.87649536132812 60.87607574462891 78.4345703125 39.21707534790039 78.4345703125 C 17.55808639526367 78.4345703125 0 60.87649536132812 0 39.21751022338867 L 0 39.21706008911133 C 0 17.55807113647461 17.55808639526367 0 39.21707534790039 0 Z" stroke="none" fill="#fff"/></g></g><g transform="translate(813.65 11479.601)"><g transform="translate(21.907 4.986)"><g transform="translate(0 2.944)"><path d="M26.19,16.5l2.982-2.111s.912-.2.334-3.227l4.759-.456.912,2.192,3.561-.994s2.111,2.363,0,4.351l-2.356,8.388Z" transform="translate(-23.274 -9.757)" fill="#d6d9f2"/><path d="M25.75,26.635l-.47-.769a1.242,1.242,0,0,0,1.164-.2c.667-.62.32-2.083-.8-3.323-1.117-1.219-2.58-1.709-3.248-1.117l2.58-2.009C30.271,20.493,29.2,26.907,25.75,26.635Z" transform="translate(-22.064 -12.473)" fill="#d6d9f2"/><path d="M26.287,26.492c-.667.62-2.111.1-3.227-1.117s-1.491-2.7-.817-3.323c.667-.592,2.131-.1,3.248,1.117,1.117,1.239,1.471,2.7.8,3.323Z" transform="translate(-21.907 -13.297)" fill="#9ba3d1"/><path d="M38.132,28.3a22.188,22.188,0,0,1,.606-4.262,4.628,4.628,0,0,0,1.491-2.063c.98-1.845-1.28-3.479-1.28-3.479a7.892,7.892,0,0,0-2.192-5.215l-1.4.388a9.464,9.464,0,0,1,2.274,4.63,1.1,1.1,0,0,1-.817,1.423l-3.377,1.627s-.776.409-1.586-.933c0,0-1.559-3.166-4.405-3.983l-1.253.885c5.283,1.273,4.221,7.687.769,7.415,1.614,3.622,2.526,5.1,1.62,6.5,4.453.94,8.885,1.832,9.552-2.935Z" transform="translate(-23.274 -10.577)" fill="#ffb255"/><ellipse cx="2.458" cy="1.403" rx="2.458" ry="1.403" transform="translate(6.219)" fill="#9ba3d1"/><g transform="translate(0.197 17.485)"><g transform="translate(0.048)"><path d="M42.572,51.256c-.082,5.168-11.847,9.389-17.627,5.161-1.968-1.443-3.445-4.33-2.247-6.455a45.082,45.082,0,0,0,5.086-13.284c-.381,2.022,4.569,1.477,7.626.089,1.062-.483,1.539-1.137,1.409-1.777C39.066,44.291,42.64,46.817,42.572,51.256Z" transform="translate(-22.267 -34.99)" fill="#ffb255"/></g><path d="M28.619,39.712c-3.554,7.571-3.847,13.876-.5,19.3-2.594-.347-7.483-4.112-5.44-7.878,1.7-3.656,4.017-10.533,4.882-12.487C27.945,39,28.667,39.6,28.619,39.712Z" transform="translate(-22.196 -36.158)" fill="#ffb255"/></g><path d="M42.935,29.08a6.225,6.225,0,0,1-3.595,1.668c.415-.048,2.111-.218,2.41-.191a.485.485,0,0,1,.429.551,14.169,14.169,0,0,1-.871,3.649l1.1-1.089-.082-.327a20.055,20.055,0,0,1,.606-4.262Z" transform="translate(-27.47 -15.619)" opacity="0.2"/></g><g transform="translate(7.199 3.427)"><path d="M35.3,10.02v.844a.691.691,0,0,1-.429.592,2.213,2.213,0,0,1-1.995-.014.717.717,0,0,1-.395-.565v-.844a.684.684,0,0,0,.395.565,2.172,2.172,0,0,0,1.995.014A.717.717,0,0,0,35.3,10.02Z" transform="translate(-32.48 -10.02)" fill="#d6d9f2"/></g><g transform="translate(6.872 2.297)"><path d="M35.466,8.36a3.786,3.786,0,0,0-.218.545,2.067,2.067,0,0,0-.1.586A.456.456,0,0,1,35.1,9.7a.929.929,0,0,1-.381.381,2.213,2.213,0,0,1-1.995-.014.859.859,0,0,1-.347-.354.456.456,0,0,1-.048-.211,1.918,1.918,0,0,0-.068-.477A5.046,5.046,0,0,0,32,8.374a1.079,1.079,0,0,0,.436.443,2.8,2.8,0,0,0,2.54.027,1.116,1.116,0,0,0,.49-.483Z" transform="translate(-32 -8.36)" fill="#d6d9f2"/></g><g transform="translate(6.738)"><path d="M35.539,6.65a1.414,1.414,0,0,1-.123.606,1.119,1.119,0,0,1-.5.5,2.805,2.805,0,0,1-2.54-.027,1.028,1.028,0,0,1-.443-.47c-.592-1.43.994-2.751,2.546-2.111a1.658,1.658,0,0,1,1.062,1.5Z" transform="translate(-31.803 -4.986)" fill="#d6d9f2"/></g></g><path d="M28.619,39.712c-3.554,7.571-3.847,13.876-.5,19.3-2.594-.347-7.483-4.112-5.44-7.878,1.7-3.656,4.017-10.533,4.882-12.487C27.945,39,28.667,39.6,28.619,39.712Z" transform="translate(-0.092 -10.743)" opacity="0.2"/><g transform="translate(27.308 25.646)"><path d="M39.767,37.066c-2.233,2.778-6.965,3.077-9.927.858a2.476,2.476,0,0,0,.054-2.036c1.341,1.954,7.326,2.764,9.41-.558.143.572.272,1.192.463,1.736Z" transform="translate(-29.84 -35.33)" fill="#f99c38"/><g transform="translate(6.427 1.752)"><path d="M40.451,38.064c.647-.374,1.178-.075,1.185.674a2.47,2.47,0,0,1-.4,1.253,2.354,2.354,0,0,1-.15.211,2.248,2.248,0,0,1-.626.572.855.855,0,0,1-.776.109.79.79,0,0,1-.4-.783A2.582,2.582,0,0,1,40.451,38.064Z" transform="translate(-39.28 -37.903)" fill="#f99c38"/></g><g transform="translate(5.181 3.84)"><g transform="translate(0 0.211)" opacity="0.2"><path d="M39.1,41.961a.873.873,0,0,0,.776-.109,2.158,2.158,0,0,0,.626-.572,8.772,8.772,0,0,1-.626,2.1,9.752,9.752,0,0,1-2.417,3.37l-.007-1.689a6.458,6.458,0,0,0,1.648-3.1Z" transform="translate(-37.45 -41.28)"/></g><g transform="translate(2.431)" opacity="0.2"><path d="M41.789,40.97a1.472,1.472,0,0,0,1.648,1.2l.007,1.689a2.276,2.276,0,0,1-2.424-.579,8.681,8.681,0,0,0,.626-2.1c.048-.068.1-.143.143-.211Z" transform="translate(-41.02 -40.97)"/></g></g></g><g transform="translate(34.049 27.817)" opacity="0.2"><path d="M40.6,38.635c.47-.272.858-.054.858.49a1.759,1.759,0,0,1-.293.912c-.034.054-.068.1-.109.157a1.545,1.545,0,0,1-.456.415.633.633,0,0,1-.565.082.576.576,0,0,1-.293-.572,1.914,1.914,0,0,1,.858-1.484Z" transform="translate(-39.74 -38.518)"/></g></g></g></svg>